HIERARCHY
ROOT Hips
{
	OFFSET 0.000000 0.000000 0.000000
	CHANNELS 6 Xposition Yposition Zposition Xrotation Yrotation Zrotation
	JOINT LeftUpLeg_virtual
	{
		OFFSET 0.000000 0.000000 0.000000
		CHANNELS 3 Xrotation Yrotation Zrotation
		JOINT LeftUpLeg
		{
			OFFSET 15.427100 -6.655098 0.678600
			CHANNELS 3 Xrotation Yrotation Zrotation
			JOINT LeftLeg
			{
				OFFSET 4.081073 -39.591068 13.024000
				CHANNELS 3 Xrotation Yrotation Zrotation
				JOINT LeftFoot
				{
					OFFSET -4.081074 -37.707932 -15.979700
					CHANNELS 3 Xrotation Yrotation Zrotation
					JOINT LeftToeBase
					{
						OFFSET 5.346399 -15.068900 20.645000
						CHANNELS 3 Xrotation Yrotation Zrotation
						JOINT LeftToe_End
						{
							OFFSET 2.754700 0.931300 11.300900
							CHANNELS 3 Xrotation Yrotation Zrotation
							End Site
							{
								OFFSET 0 0 0
							}
						}
					}
				}
			}
		}
	}
	JOINT RightUpLeg_virtual
	{
		OFFSET 0.000000 0.000000 0.000000
		CHANNELS 3 Xrotation Yrotation Zrotation
		JOINT RightUpLeg
		{
			OFFSET -15.569500 -6.655098 0.678600
			CHANNELS 3 Xrotation Yrotation Zrotation
			JOINT RightLeg
			{
				OFFSET -4.081825 -39.591045 13.023800
				CHANNELS 3 Xrotation Yrotation Zrotation
				JOINT RightFoot
				{
					OFFSET 4.081824 -37.707954 -15.979600
					CHANNELS 3 Xrotation Yrotation Zrotation
					JOINT RightToeBase
					{
						OFFSET -5.346400 -15.068900 20.645000
						CHANNELS 3 Xrotation Yrotation Zrotation
						JOINT RightToe_End
						{
							OFFSET -2.754700 0.931300 11.300900
							CHANNELS 3 Xrotation Yrotation Zrotation
							End Site
							{
								OFFSET 0 0 0
							}
						}
					}
				}
			}
		}
	}
	JOINT Spine_virtual
	{
		OFFSET 0.000000 0.000000 0.000000
		CHANNELS 3 Xrotation Yrotation Zrotation
		JOINT Spine
		{
			OFFSET -0.279200 12.230698 -2.892100
			CHANNELS 3 Xrotation Yrotation Zrotation
			JOINT Spine1
			{
				OFFSET -0.232667 10.192268 -1.242267
				CHANNELS 3 Xrotation Yrotation Zrotation
				JOINT Spine1_split
				{
					OFFSET -0.232667 10.192268 -1.242267
					CHANNELS 3 Xrotation Yrotation Zrotation
					JOINT Spine2
					{
						OFFSET -0.232667 10.192268 -1.242267
						CHANNELS 3 Xrotation Yrotation Zrotation
						JOINT Neck_virtual
						{
							OFFSET 0.000000 0.000000 0.000000
							CHANNELS 3 Xrotation Yrotation Zrotation
							JOINT Neck
							{
								OFFSET -0.418800 17.814194 8.416900
								CHANNELS 3 Xrotation Yrotation Zrotation
								JOINT Head
								{
									OFFSET 0.000000 7.031097 3.806800
									CHANNELS 3 Xrotation Yrotation Zrotation
									JOINT HeadTop_End
									{
										OFFSET 0.000000 24.646606 12.978600
										CHANNELS 3 Xrotation Yrotation Zrotation
										End Site
										{
											OFFSET 0 0 0
										}
									}
								}
							}
						}
						JOINT LeftShoulder_virtual
						{
							OFFSET 0.000000 0.000000 0.000000
							CHANNELS 3 Xrotation Yrotation Zrotation
							JOINT LeftShoulder
							{
								OFFSET 8.476499 7.247704 -3.868750
								CHANNELS 3 Xrotation Yrotation Zrotation
								JOINT LeftShoulder_split
								{
									OFFSET 8.476499 7.247704 -3.868750
									CHANNELS 3 Xrotation Yrotation Zrotation
									JOINT LeftArm
									{
										OFFSET 9.308998 -2.777710 0.208600
										CHANNELS 3 Xrotation Yrotation Zrotation
										JOINT LeftForeArm
										{
											OFFSET 29.972298 0.000000 0.000000
											CHANNELS 3 Xrotation Yrotation Zrotation
											JOINT LeftHand
											{
												OFFSET 26.026505 0.000000 0.000000
												CHANNELS 3 Xrotation Yrotation Zrotation
												End Site
												{
													OFFSET 0 0 0
												}
											}
										}
									}
								}
							}
						}
						JOINT RightShoulder_virtual
						{
							OFFSET 0.000000 0.000000 0.000000
							CHANNELS 3 Xrotation Yrotation Zrotation
							JOINT RightShoulder
							{
								OFFSET -7.570500 7.247704 -3.868750
								CHANNELS 3 Xrotation Yrotation Zrotation
								JOINT RightShoulder_split
								{
									OFFSET -7.570500 7.247704 -3.868750
									CHANNELS 3 Xrotation Yrotation Zrotation
									JOINT RightArm
									{
										OFFSET -9.308998 -2.777710 0.208500
										CHANNELS 3 Xrotation Yrotation Zrotation
										JOINT RightForeArm
										{
											OFFSET -29.972300 0.000000 0.000000
											CHANNELS 3 Xrotation Yrotation Zrotation
											JOINT RightHand
											{
												OFFSET -26.026505 0.000000 0.000000
												CHANNELS 3 Xrotation Yrotation Zrotation
												End Site
												{
													OFFSET 0 0 0
												}
											}
										}
									}
								}
							}
						}
					}
				}
			}
		}
	}
}
MOTION
Frames: 8
Frame Time: 0.03333333
5.600113 73.608734 -1.122463 0.000000 0.000000 0.000000 3.877768 6.426103 -3.191983 14.543585 21.091067 17.221834 36.228034 6.381931 -5.337359 -27.161958 13.113556 -11.782373 -27.252694 -2.444508 1.407975 0.000000 0.000000 0.000000 3.267087 5.240191 -3.393580 -55.884659 14.717885 -4.576555 58.006276 -3.366117 4.811981 -2.769565 -5.047214 14.627526 1.919640 7.896879 -13.886006 0.000000 0.000000 0.000000 3.692431 8.760803 -1.737301 1.533407 -3.921477 -0.456019 5.591291 -5.015288 2.483100 -0.097641 -0.344327 -0.321139 0.000000 0.000000 0.000000 5.005407 -3.221462 3.513351 -3.471751 7.678508 -6.311879 -16.185595 -25.565302 -27.117823 0.000000 0.000000 0.000000 5.531167 -5.086563 1.861324 0.475396 4.155855 2.920438 -1.046685 0.854108 2.570886 -15.481764 6.446005 -59.775562 133.438537 -73.582803 126.750757 0.000000 0.000000 0.000000 6.022660 -4.294618 3.415336 -2.768256 -5.553187 12.507808 -0.471160 4.563132 2.085414 -9.866099 -7.912603 61.956468 -175.666537 56.366587 -176.425589 0.000000 0.000000 0.000000 
5.180079 75.490837 -1.168102 0.000000 0.000000 0.000000 4.062536 7.231425 -3.056410 12.193961 18.029976 18.543298 38.121680 7.183330 -5.997697 -18.411550 13.110820 -9.771335 -24.716790 -1.899167 0.165068 0.000000 0.000000 0.000000 3.110561 6.454371 -3.228230 -53.289505 14.028282 -5.647322 54.474044 -3.915659 4.847660 -1.483332 -5.012961 15.871398 -1.142477 8.363944 -13.338647 0.000000 0.000000 0.000000 3.431817 9.429238 -2.118165 1.173215 -3.832845 0.379880 5.600277 -4.953251 2.467071 -0.249760 0.092096 -0.202147 0.000000 0.000000 0.000000 4.781002 -3.214979 3.297807 -3.393285 7.649625 -6.223148 -15.594428 -25.423757 -27.036932 0.000000 0.000000 0.000000 5.755836 -5.015813 1.916933 0.538002 2.447381 3.546769 0.521971 -1.556604 3.092907 -20.156573 4.686306 -59.603127 136.183522 -73.045499 129.820764 0.000000 0.000000 0.000000 6.357571 -4.196115 3.165114 -2.965830 -5.092223 11.338894 -1.546271 5.166593 0.368091 -13.590984 -6.382173 62.847337 -176.118340 52.340983 -177.030826 0.000000 0.000000 0.000000 
4.705888 78.457481 -0.977528 0.000000 0.000000 0.000000 3.807811 9.492493 -3.030808 7.019998 14.418073 19.401748 40.285258 8.605603 -5.906145 -4.742375 12.159603 -8.463453 -22.890754 -0.722234 -3.675484 0.000000 0.000000 0.000000 3.269119 8.726919 -3.258389 -48.377270 12.966951 -6.105084 47.434004 -5.683279 4.549183 -0.434719 -6.329666 14.380709 -1.559244 8.457157 -11.043401 0.000000 0.000000 0.000000 3.208558 11.082384 -2.605900 0.711325 -3.665434 1.786522 5.731892 -4.953898 2.136217 -0.149572 0.481836 -0.015072 0.000000 0.000000 0.000000 4.719703 -3.144742 2.741545 -2.771016 7.507128 -5.708711 -14.053654 -25.179084 -25.925810 0.000000 0.000000 0.000000 6.161470 -4.873398 1.768609 0.653826 0.042930 3.551117 2.289277 -2.791111 2.319736 -27.599336 0.737736 -58.230778 140.427528 -73.464599 134.540984 0.000000 0.000000 0.000000 6.904061 -4.114417 2.617197 -3.113780 -5.021054 9.008855 -1.605914 3.421228 -0.309742 -20.944270 -1.808552 63.008659 -175.511683 51.654398 -178.823819 0.000000 0.000000 0.000000 
4.663996 81.680405 -0.861898 0.000000 0.000000 0.000000 3.269176 11.974509 -3.126361 -0.581561 11.055104 19.630186 43.429713 9.700964 -5.162196 11.449321 9.512842 -8.999815 -26.659610 0.890328 -7.773187 0.000000 0.000000 0.000000 3.272074 11.164360 -3.402255 -42.699781 11.443155 -5.818015 39.625715 -7.832344 4.119924 1.222805 -8.459481 11.272671 -0.914858 8.395224 -7.948995 0.000000 0.000000 0.000000 3.002933 13.370470 -2.887394 0.241338 -3.462682 3.369059 6.043293 -5.006645 1.651425 0.039767 0.710473 0.120037 0.000000 0.000000 0.000000 4.956235 -3.007981 2.082022 -1.788146 7.363382 -4.765994 -12.001856 -24.504400 -24.271077 0.000000 0.000000 0.000000 6.695100 -4.695259 1.569707 0.707347 -2.628250 3.115820 3.507704 -2.422049 1.147108 -36.789158 -4.694602 -56.506893 143.100892 -75.311797 137.786663 0.000000 0.000000 0.000000 7.584981 -4.079811 1.987230 -3.281597 -5.308421 5.867091 -0.874314 0.919659 -0.089706 -30.595361 4.488003 63.372319 -173.552252 54.726990 178.171290 0.000000 0.000000 0.000000 
4.838329 84.425613 -0.437080 0.000000 0.000000 0.000000 2.298701 14.013031 -2.928779 -10.127454 7.880750 18.904700 49.069684 9.800727 -3.654261 26.455848 4.870143 -10.617646 -34.695711 2.752896 -10.250131 0.000000 0.000000 0.000000 2.803103 13.420974 -3.405549 -38.255152 9.440988 -4.949901 34.023891 -9.019840 3.928905 3.765828 -10.116760 9.061025 -2.208096 8.472833 -5.200714 0.000000 0.000000 0.000000 2.648604 16.048624 -2.678062 -0.030458 -3.239618 4.632493 6.576097 -5.059303 1.218393 0.185714 0.648683 0.139878 0.000000 0.000000 0.000000 5.570114 -2.840490 1.595704 -0.762938 7.249647 -3.432140 -10.057930 -23.086562 -22.741344 0.000000 0.000000 0.000000 7.279103 -4.518850 1.474267 0.651521 -5.095786 2.795207 4.045048 -1.085639 0.050556 -46.911764 -11.020520 -55.206452 140.702512 -78.940198 136.091615 0.000000 0.000000 0.000000 8.197040 -4.100779 1.515874 -3.582029 -5.841103 2.228535 -0.439724 -1.120369 0.265817 -41.411259 10.744583 64.365558 -168.525192 61.622527 172.487166 0.000000 0.000000 0.000000 
5.082014 86.130348 0.582548 0.000000 0.000000 0.000000 0.788100 15.789000 -2.295094 -21.294105 5.561826 16.829972 58.595701 9.972489 -2.304310 35.625901 0.559163 -10.759927 -38.832460 4.126333 -11.989913 0.000000 0.000000 0.000000 1.569053 15.175844 -2.981930 -35.657651 7.155879 -3.789822 32.223863 -8.515346 4.067177 5.914221 -10.402948 8.469137 -5.406029 8.592199 -3.527342 0.000000 0.000000 0.000000 1.672883 18.405184 -2.058739 0.157146 -2.982576 5.198477 7.224756 -5.047629 0.986360 0.210800 0.380322 0.057183 0.000000 0.000000 0.000000 6.496110 -2.664297 1.454590 -0.000041 7.177772 -1.805318 -8.667875 -20.890229 -21.836671 0.000000 0.000000 0.000000 7.871586 -4.327228 1.613397 0.523718 -6.856195 3.061498 4.296210 0.226255 -0.568615 -56.788180 -16.911581 -54.941044 121.316714 -83.601529 117.521628 0.000000 0.000000 0.000000 8.664962 -4.163012 1.357918 -4.082899 -6.498779 -1.737366 -0.591280 -2.467153 0.379020 -52.098917 15.317398 65.861185 -154.680494 71.103779 158.660377 0.000000 0.000000 0.000000 
5.451043 86.465118 1.421421 0.000000 0.000000 0.000000 -1.087313 17.258442 -1.195693 -32.596675 4.557232 13.673076 69.980827 10.913878 -1.409198 37.173503 -1.416472 -9.106353 -36.556521 4.226657 -12.697083 0.000000 0.000000 0.000000 -0.421189 16.210501 -1.863254 -34.520220 4.775498 -2.918877 34.204932 -6.265969 4.495119 5.778778 -9.110972 8.613659 -7.318670 8.636649 -3.237209 0.000000 0.000000 0.000000 -0.132268 19.778669 -1.181750 0.958105 -2.590135 4.939261 7.916173 -4.893532 1.047236 0.078565 0.173127 -0.068396 0.000000 0.000000 0.000000 7.556336 -2.462976 1.672923 0.437795 7.151217 -0.041731 -7.687250 -18.181608 -21.650414 0.000000 0.000000 0.000000 8.442945 -4.081369 1.987088 0.527524 -7.631185 4.355670 3.967546 0.817594 -0.669474 -66.064936 -21.353297 -55.739934 53.242233 -84.623851 50.357209 0.000000 0.000000 0.000000 8.931951 -4.203193 1.458630 -4.814731 -7.124108 -6.017645 -0.991671 -2.857295 -0.101823 -61.909777 17.160051 67.172499 -112.221845 78.135998 116.904043 0.000000 0.000000 0.000000 
5.719444 85.411362 2.184038 0.000000 0.000000 0.000000 -3.200418 18.016390 0.153850 -42.416530 3.882557 10.117955 80.320969 12.267437 -0.972657 33.706304 -1.408778 -6.693471 -28.673995 3.310154 -12.503612 0.000000 0.000000 0.000000 -2.629404 16.445484 -0.416156 -34.203340 2.360865 -2.466615 38.800785 -3.088203 4.887705 2.484636 -6.921756 8.411550 -5.965576 8.607776 -3.918283 0.000000 0.000000 0.000000 -2.657123 19.955806 -0.278339 2.241067 -1.956533 3.963466 8.539694 -4.573054 1.364614 -0.061303 0.090315 -0.170183 0.000000 0.000000 0.000000 8.597790 -2.212781 2.120944 0.762210 7.107730 1.731940 -6.697733 -15.464199 -21.987743 0.000000 0.000000 0.000000 8.914048 -3.777921 2.424765 0.672344 -7.446246 6.907607 3.238068 1.033262 -0.290890 -74.335346 -23.898794 -57.368651 20.619349 -79.838600 18.614227 0.000000 0.000000 0.000000 9.073687 -4.120619 1.711228 -5.652757 -7.627764 -10.594692 -1.676367 -2.576871 -0.750575 -70.206271 16.475965 67.590767 -63.713582 74.353535 69.756312 0.000000 0.000000 0.000000 
